<svg fill="none" height="276" viewBox="0 0 2000 276" width="2000" xmlns="http://www.w3.org/2000/svg" xmlns:xlink="http://www.w3.org/1999/xlink"><clipPath id="a"><path d="m0 0h2000v275.01h-2000z"/></clipPath><g clip-path="url(#a)"><g fill="#00a68b"><path d="m1970.76 273.178v-225.9565h29.24v225.9565z"/><path d="m1895.05 273.178v-34.106l-1.52-6.401v-58.16c0-12.386-3.67-21.922-10.97-28.622-7.1-6.902-17.87-10.353-32.27-10.353-9.55 0-18.89 1.618-28.02 4.869-9.14 3.049-16.85 7.202-23.14 12.485l-12.19-21.921c8.32-6.701 18.27-11.77 29.84-15.22 11.79-3.652 24.06-5.484 36.86-5.484 22.12 0 39.17 5.383 51.16 16.136 11.97 10.753 17.95 27.205 17.95 49.327v97.45zm-52.99 1.832c-11.97 0-22.53-2.033-31.66-6.085-8.94-4.066-15.84-9.65-20.72-16.752-4.87-7.302-7.3-15.535-7.3-24.671 0-9.135 2.03-16.652 6.08-23.753 4.27-7.102 11.07-12.787 20.41-17.053 9.55-4.267 22.33-6.401 38.37-6.401h51.16v21.005h-49.94c-14.62 0-24.47 2.434-29.54 7.302-5.07 4.869-7.62 10.753-7.62 17.655 0 7.918 3.15 14.318 9.45 19.186 6.29 4.668 15.02 7.002 26.19 7.002s20.5-2.434 28.62-7.302c8.32-4.869 14.3-11.985 17.97-21.32l5.78 20.103c-3.86 9.535-10.66 17.153-20.4 22.837-9.75 5.484-22.03 8.219-36.85 8.219z"/><path d="m1697.33 275.01c-16.44 0-31.16-3.55-44.16-10.652-12.79-7.102-22.84-16.853-30.14-29.238-7.32-12.385-10.97-26.589-10.97-42.626 0-16.036 3.65-30.254 10.97-42.639 7.3-12.386 17.35-22.022 30.14-28.923 13-7.102 27.72-10.653 44.16-10.653 14.62 0 27.6 2.95 38.97 8.834 11.57 5.685 20.5 14.204 26.8 25.587l-22.23 14.318c-5.27-7.918-11.77-13.702-19.49-17.353-7.5-3.852-15.63-5.785-24.35-5.785-10.56 0-20.01 2.334-28.33 7.002-8.31 4.667-14.91 11.268-19.8 19.788-4.87 8.318-7.3 18.27-7.3 29.839s2.43 21.62 7.3 30.14c4.89 8.533 11.49 15.12 19.8 19.787 8.32 4.668 17.77 7.002 28.33 7.002 8.72 0 16.85-1.833 24.35-5.484 7.72-3.851 14.22-9.751 19.49-17.669l22.23 14.004c-6.3 11.168-15.23 19.787-26.8 25.887-11.37 5.885-24.35 8.834-38.97 8.834z"/><path d="m1548.03 273.178v-161.395h29.22v161.395zm14.61-192.4517c-5.69 0-10.46-1.8328-14.31-5.4839-3.65-3.6512-5.48-8.1184-5.48-13.4019 0-5.2834 1.83-10.0514 5.48-13.7025 3.85-3.6512 8.62-5.4839 14.31-5.4839 5.68 0 10.36 1.8327 14.01 5.4839 3.85 3.4507 5.79 7.8177 5.79 13.1012 0 5.2834-1.84 10.1516-5.49 14.0032-3.65 3.6511-8.42 5.4839-14.31 5.4839z"/><path d="m1413.24 275.01c-15.64 0-29.64-3.45-42.03-10.352-12.18-6.901-21.82-16.537-28.93-28.923-7.1-12.385-10.66-26.803-10.66-43.241 0-16.437 3.56-30.755 10.66-42.94 7.1-12.385 16.75-22.021 28.93-28.923 12.39-6.901 26.39-10.352 42.03-10.352 13.6 0 25.87 3.05 36.84 9.135s19.69 15.22 26.19 27.405c6.7 12.185 10.05 27.405 10.05 45.675s-3.25 33.505-9.75 45.676c-6.29 12.184-14.92 21.42-25.87 27.705-10.97 6.086-23.46 9.135-37.46 9.135zm2.43-25.586c10.15 0 19.29-2.334 27.41-7.002 8.32-4.668 14.82-11.268 19.49-19.788 4.86-8.734 7.3-18.785 7.3-30.154s-2.44-21.52-7.3-29.839c-4.67-8.52-11.17-15.12-19.49-19.788-8.12-4.668-17.26-7.002-27.41-7.002s-19.58 2.334-27.7 7.002-14.62 11.268-19.49 19.788c-4.87 8.319-7.3 18.27-7.3 29.839s2.43 21.42 7.3 30.154c4.87 8.52 11.37 15.12 19.49 19.788s17.35 7.002 27.7 7.002zm55.11 23.754v-43.542l1.84-37.457-3.05-37.456v-107.5015h29.23v225.9565z"/><path d="m1238.04 275.01c-17.25 0-32.49-3.55-45.67-10.652-12.99-7.102-23.14-16.853-30.46-29.238-7.1-12.385-10.65-26.589-10.65-42.626 0-16.036 3.45-30.254 10.35-42.639 7.1-12.386 16.75-22.022 28.92-28.923 12.39-7.102 26.29-10.653 41.73-10.653 15.43 0 29.43 3.451 41.4 10.352 11.97 6.902 21.32 16.652 28.03 29.238 6.9 12.385 10.35 26.904 10.35 43.542 0 1.217-.1 2.634-.3 4.267 0 1.618-.1 3.15-.3 4.567h-137.34v-21.019h122.1l-11.87 7.302c.2-10.352-1.93-19.587-6.4-27.706-4.47-8.118-10.65-14.418-18.57-18.885-7.72-4.668-16.75-7.002-27.1-7.002-10.36 0-19.19 2.334-27.11 7.002-7.92 4.467-14.1 10.867-18.57 19.186-4.47 8.119-6.7 17.454-6.7 28.021v4.868c0 10.753 2.43 20.404 7.3 28.923 5.07 8.319 12.09 14.819 21.01 19.487 8.93 4.668 19.18 7.002 30.75 7.002 9.54 0 18.17-1.618 25.89-4.868 7.92-3.251 14.82-8.119 20.7-14.619l16.14 18.885c-7.3 8.534-16.44 15.02-27.4 19.487-10.76 4.468-22.84 6.701-36.24 6.701z"/><path d="m1052.4 110.265c12.99 0 24.47 2.534 34.41 7.617 9.95 5.069 17.66 12.786 23.14 23.138 5.68 10.352 8.53 23.454 8.53 39.29v92.882h-29.23v-89.532c0-15.635-3.66-27.405-10.97-35.323-7.3-7.918-17.57-11.87-30.76-11.87-9.73 0-18.27 2.033-25.57 6.085-7.3 4.067-12.99 10.052-17.05 17.97-3.85 7.918-5.788 17.769-5.788 29.538v83.132h-29.238v-89.532c0-15.635-3.651-27.405-10.967-35.323-7.102-7.918-17.354-11.87-30.756-11.87-9.536 0-17.969 2.033-25.272 6.085-7.302 4.067-12.986 10.052-17.053 17.97-4.066 7.918-6.085 17.769-6.085 29.538v83.132h-29.238v-161.395h28.021v42.94l-4.567-10.968c5.083-10.552 12.886-18.785 23.453-24.67 10.552-5.885 22.837-8.834 36.841-8.834 15.435 0 28.722 3.851 39.89 11.569 11.168 7.517 18.471 18.986 21.921 34.407l-11.869-4.869c4.868-12.385 13.402-22.336 25.577-29.839 12.18-7.517 26.38-11.268 42.63-11.268z"/></g><path clip-rule="evenodd" d="m740.654 160.264h-70.016c-7.947 0-12.658 0-16.223.129-2.205.072-3.179.186-3.422.215-6.1 1.288-10.868 6.056-12.171 12.17-.028.244-.128 1.217-.214 3.422-.129 3.551-.129 8.276-.129 16.223 0 7.946 0 12.657.129 16.222.071 2.205.186 3.179.214 3.422 1.289 6.1 6.057 10.868 12.171 12.171.243.029 1.217.129 3.422.215 3.551.129 8.276.129 16.223.129h70.016c7.946 0 12.657 0 16.222-.129 2.205-.072 3.179-.186 3.422-.215 6.1-1.289 10.868-6.057 12.171-12.171.029-.243.129-1.217.215-3.422.129-3.551.129-8.276.129-16.222 0-7.947 0-12.658-.129-16.223-.072-2.205-.186-3.178-.215-3.422-1.289-6.099-6.057-10.867-12.171-12.17-.243-.029-1.217-.129-3.422-.215-3.551-.129-8.276-.129-16.222-.129zm-149.468 3.007c-1.275 6.329-1.275 13.932-1.275 29.152s0 22.823 1.275 29.152c5.14 25.357 24.956 45.174 50.3 50.3 6.328 1.274 13.931 1.274 29.152 1.274h70.016c15.22 0 22.823 0 29.152-1.274 25.357-5.141 45.174-24.957 50.3-50.3 1.274-6.329 1.274-13.932 1.274-29.152s0-22.823-1.274-29.152c-5.141-25.358-24.957-45.174-50.3-50.3-6.329-1.274-13.932-1.274-29.152-1.274h-70.016c-15.221 0-22.824 0-29.152 1.274-25.358 5.14-45.174 24.957-50.3 50.3z" fill="#0c2340" fill-rule="evenodd"/><path clip-rule="evenodd" d="m42.4249 52.4763c8.3333-3.4507 17.2822-5.2261 26.3026-5.2261h50.1135v48.682h-50.1135c-2.6345 0-5.2404.5154-7.6745 1.5177s-4.6391 2.4914-6.5005 4.3531c-1.8614 1.861-3.3362 4.066-4.3528 6.5-1.0022 2.434-1.532 5.04-1.532 7.675 0 2.634.5155 5.24 1.532 7.674 1.0023 2.434 2.4771 4.639 4.3528 6.501 1.8614 1.861 4.0664 3.336 6.5005 4.353 2.4341 1.002 5.04 1.532 7.6745 1.532h107.3865c9.021 0 17.955 1.775 26.303 5.226 8.333 3.45 15.907 8.519 22.293 14.905s11.441 13.96 14.891 22.294c3.451 8.333 5.227 17.282 5.227 26.302 0 9.021-1.776 17.955-5.227 26.303-3.45 8.333-8.519 15.907-14.891 22.293-6.371 6.386-13.96 11.441-22.293 14.891-8.333 3.451-17.282 5.226-26.303 5.226h-107.3865c-9.0204 0-17.9693-1.775-26.3026-5.226-8.3332-3.45-15.9218-8.519-22.2935-14.891-6.3859-6.386-11.44023-13.96-14.90524-22.293-3.4507-8.333-5.22616-17.282-5.22616-26.303h48.682c0 2.635.5155 5.241 1.5321 7.675 1.0022 2.434 2.477 4.639 4.3527 6.5 1.8614 1.862 4.0664 3.336 6.5005 4.353 2.4341 1.002 5.04 1.532 7.6746 1.532h107.3871c2.634 0 5.24-.515 7.674-1.518 2.434-1.002 4.639-2.491 6.501-4.353 1.861-1.861 3.336-4.066 4.352-6.5 1.003-2.434 1.533-5.04 1.533-7.675 0-2.634-.516-5.24-1.533-7.674-1.002-2.434-2.491-4.639-4.352-6.501-1.862-1.861-4.067-3.336-6.501-4.352-2.434-1.003-5.04-1.532-7.674-1.532h-107.3871c-9.0205 0-17.9694-1.776-26.3026-5.227-8.3333-3.45-15.9219-8.519-22.2935-14.891-6.386-6.385-11.44031-13.96-14.90532-22.293-3.4507-8.333-5.2261618-17.282-5.2261618-26.303 0-9.02 1.7754618-17.969 5.2261618-26.3022 3.45069-8.3333 8.51932-15.9219 14.90532-22.2935 6.3859-6.386 13.9602-11.4403 22.2935-14.9053z" fill="#0c2340" fill-rule="evenodd"/><path d="m180.41 0h48.682v46.835h47.25v48.2524h-47.25v45.7036c-6.372-5.283-13.517-9.593-21.191-12.772-8.749-3.622-18.041-5.727-27.491-6.214v-26.7176h-47.25v-48.2524h47.25z" fill="#00a68b"/><path d="m339.342 47.2502h-48.682v226.2278h48.682z" fill="#0c2340"/><path d="m385.161 47.2502h196.159v48.682h-147.477v40.0908h127.432v48.682h-127.432v88.773h-48.682z" fill="#0c2340"/></g></svg>