<svg width="2000" height="276" viewBox="0 0 2000 276" fill="none" xmlns="http://www.w3.org/2000/svg">
<g clip-path="url(#clip0_305_986)">
<path d="M1970.76 273.178V47.2215H2000V273.178H1970.76Z" fill="white"/>
<path d="M1895.05 273.178V239.072L1893.53 232.671V174.511C1893.53 162.125 1889.86 152.589 1882.56 145.889C1875.46 138.987 1864.69 135.536 1850.29 135.536C1840.74 135.536 1831.4 137.154 1822.27 140.405C1813.13 143.454 1805.42 147.607 1799.13 152.89L1786.94 130.969C1795.26 124.268 1805.21 119.199 1816.78 115.749C1828.57 112.097 1840.84 110.265 1853.64 110.265C1875.76 110.265 1892.81 115.648 1904.8 126.401C1916.77 137.154 1922.75 153.606 1922.75 175.728V273.178H1895.05ZM1842.06 275.01C1830.09 275.01 1819.53 272.977 1810.4 268.925C1801.46 264.859 1794.56 259.275 1789.68 252.173C1784.81 244.871 1782.38 236.638 1782.38 227.502C1782.38 218.367 1784.41 210.85 1788.46 203.749C1792.73 196.647 1799.53 190.962 1808.87 186.696C1818.42 182.429 1831.2 180.295 1847.24 180.295H1898.4V201.3H1848.46C1833.84 201.3 1823.99 203.734 1818.92 208.602C1813.85 213.471 1811.3 219.355 1811.3 226.257C1811.3 234.175 1814.45 240.575 1820.75 245.443C1827.04 250.111 1835.77 252.445 1846.94 252.445C1858.11 252.445 1867.44 250.011 1875.56 245.143C1883.88 240.274 1889.86 233.158 1893.53 223.823L1899.31 243.926C1895.45 253.461 1888.65 261.079 1878.91 266.763C1869.16 272.247 1856.88 274.982 1842.06 274.982V275.01Z" fill="white"/>
<path d="M1697.33 275.01C1680.89 275.01 1666.17 271.46 1653.17 264.358C1640.38 257.256 1630.33 247.505 1623.03 235.12C1615.71 222.735 1612.06 208.531 1612.06 192.494C1612.06 176.458 1615.71 162.24 1623.03 149.855C1630.33 137.469 1640.38 127.833 1653.17 120.932C1666.17 113.83 1680.89 110.279 1697.33 110.279C1711.95 110.279 1724.93 113.229 1736.3 119.113C1747.87 124.798 1756.8 133.317 1763.1 144.7L1740.87 159.018C1735.6 151.1 1729.1 145.316 1721.38 141.665C1713.88 137.813 1705.75 135.88 1697.03 135.88C1686.47 135.88 1677.02 138.214 1668.7 142.882C1660.39 147.549 1653.79 154.15 1648.9 162.67C1644.03 170.988 1641.6 180.94 1641.6 192.509C1641.6 204.078 1644.03 214.129 1648.9 222.649C1653.79 231.182 1660.39 237.769 1668.7 242.436C1677.02 247.104 1686.47 249.438 1697.03 249.438C1705.75 249.438 1713.88 247.605 1721.38 243.954C1729.1 240.103 1735.6 234.203 1740.87 226.285L1763.1 240.289C1756.8 251.457 1747.87 260.076 1736.3 266.176C1724.93 272.061 1711.95 275.01 1697.33 275.01Z" fill="white"/>
<path d="M1548.03 273.178V111.783H1577.25V273.178H1548.03ZM1562.64 80.7263C1556.95 80.7263 1552.18 78.8935 1548.33 75.2424C1544.68 71.5912 1542.85 67.124 1542.85 61.8405C1542.85 56.5571 1544.68 51.7891 1548.33 48.138C1552.18 44.4868 1556.95 42.6541 1562.64 42.6541C1568.32 42.6541 1573 44.4868 1576.65 48.138C1580.5 51.5887 1582.44 55.9557 1582.44 61.2392C1582.44 66.5226 1580.6 71.3908 1576.95 75.2424C1573.3 78.8935 1568.53 80.7263 1562.64 80.7263Z" fill="white"/>
<path d="M1413.24 275.01C1397.6 275.01 1383.6 271.56 1371.21 264.658C1359.03 257.757 1349.39 248.121 1342.28 235.735C1335.18 223.35 1331.62 208.932 1331.62 192.494C1331.62 176.057 1335.18 161.739 1342.28 149.554C1349.38 137.169 1359.03 127.533 1371.21 120.631C1383.6 113.73 1397.6 110.279 1413.24 110.279C1426.84 110.279 1439.11 113.329 1450.08 119.414C1461.05 125.499 1469.77 134.634 1476.27 146.819C1482.97 159.004 1486.32 174.224 1486.32 192.494C1486.32 210.764 1483.07 225.999 1476.57 238.17C1470.28 250.354 1461.65 259.59 1450.7 265.875C1439.73 271.961 1427.24 275.01 1413.24 275.01ZM1415.67 249.424C1425.82 249.424 1434.96 247.09 1443.08 242.422C1451.4 237.754 1457.9 231.154 1462.57 222.634C1467.43 213.9 1469.87 203.849 1469.87 192.48C1469.87 181.111 1467.43 170.96 1462.57 162.641C1457.9 154.121 1451.4 147.521 1443.08 142.853C1434.96 138.185 1425.82 135.851 1415.67 135.851C1405.52 135.851 1396.09 138.185 1387.97 142.853C1379.85 147.521 1373.35 154.121 1368.48 162.641C1363.61 170.96 1361.18 180.911 1361.18 192.48C1361.18 204.049 1363.61 213.9 1368.48 222.634C1373.35 231.154 1379.85 237.754 1387.97 242.422C1396.09 247.09 1405.32 249.424 1415.67 249.424ZM1470.78 273.178V229.636L1472.62 192.179L1469.57 154.723V47.2215H1498.8V273.178H1470.78Z" fill="white"/>
<path d="M1238.04 275.01C1220.79 275.01 1205.55 271.46 1192.37 264.358C1179.38 257.256 1169.23 247.505 1161.91 235.12C1154.81 222.735 1151.26 208.531 1151.26 192.494C1151.26 176.458 1154.71 162.24 1161.61 149.855C1168.71 137.469 1178.36 127.833 1190.53 120.932C1202.92 113.83 1216.82 110.279 1232.26 110.279C1247.69 110.279 1261.69 113.73 1273.66 120.631C1285.63 127.533 1294.98 137.283 1301.69 149.869C1308.59 162.254 1312.04 176.773 1312.04 193.411C1312.04 194.628 1311.94 196.045 1311.74 197.678C1311.74 199.296 1311.64 200.828 1311.44 202.245H1174.1V181.226H1296.2L1284.33 188.528C1284.53 178.176 1282.4 168.941 1277.93 160.822C1273.46 152.704 1267.28 146.404 1259.36 141.937C1251.64 137.269 1242.61 134.935 1232.26 134.935C1221.9 134.935 1213.07 137.269 1205.15 141.937C1197.23 146.404 1191.05 152.804 1186.58 161.123C1182.11 169.242 1179.88 178.577 1179.88 189.144V194.012C1179.88 204.765 1182.31 214.416 1187.18 222.935C1192.25 231.254 1199.27 237.754 1208.19 242.422C1217.12 247.09 1227.37 249.424 1238.94 249.424C1248.48 249.424 1257.11 247.806 1264.83 244.556C1272.75 241.305 1279.65 236.437 1285.53 229.937L1301.67 248.822C1294.37 257.356 1285.23 263.842 1274.27 268.309C1263.51 272.777 1251.43 275.01 1238.03 275.01H1238.04Z" fill="white"/>
<path d="M1052.4 110.265C1065.39 110.265 1076.87 112.799 1086.81 117.882C1096.76 122.951 1104.47 130.668 1109.95 141.02C1115.63 151.372 1118.48 164.474 1118.48 180.31V273.192H1089.25V183.66C1089.25 168.025 1085.59 156.255 1078.28 148.337C1070.98 140.419 1060.71 136.467 1047.52 136.467C1037.79 136.467 1029.25 138.5 1021.95 142.552C1014.65 146.619 1008.96 152.604 1004.9 160.522C1001.05 168.44 999.112 178.291 999.112 190.06V273.192H969.874V183.66C969.874 168.025 966.223 156.255 958.907 148.337C951.805 140.419 941.553 136.467 928.151 136.467C918.615 136.467 910.182 138.5 902.879 142.552C895.577 146.619 889.893 152.604 885.826 160.522C881.76 168.44 879.741 178.291 879.741 190.06V273.192H850.503V111.797H878.524V154.737L873.957 143.769C879.04 133.217 886.843 124.984 897.41 119.099C907.962 113.214 920.247 110.265 934.251 110.265C949.686 110.265 962.973 114.116 974.141 121.834C985.309 129.351 992.612 140.82 996.062 156.241L984.193 151.372C989.061 138.987 997.595 129.036 1009.77 121.533C1021.95 114.016 1036.15 110.265 1052.4 110.265Z" fill="white"/>
<path fill-rule="evenodd" clip-rule="evenodd" d="M740.654 160.264H670.638C662.691 160.264 657.98 160.264 654.415 160.393C652.21 160.465 651.236 160.579 650.993 160.608C644.893 161.896 640.125 166.664 638.822 172.778C638.794 173.022 638.694 173.995 638.608 176.2C638.479 179.751 638.479 184.476 638.479 192.423C638.479 200.369 638.479 205.08 638.608 208.645C638.679 210.85 638.794 211.824 638.822 212.067C640.111 218.167 644.879 222.935 650.993 224.238C651.236 224.267 652.21 224.367 654.415 224.453C657.966 224.582 662.691 224.582 670.638 224.582H740.654C748.6 224.582 753.311 224.582 756.876 224.453C759.081 224.381 760.055 224.267 760.298 224.238C766.398 222.949 771.166 218.181 772.469 212.067C772.498 211.824 772.598 210.85 772.684 208.645C772.813 205.094 772.813 200.369 772.813 192.423C772.813 184.476 772.813 179.765 772.684 176.2C772.612 173.995 772.498 173.022 772.469 172.778C771.18 166.679 766.412 161.911 760.298 160.608C760.055 160.579 759.081 160.479 756.876 160.393C753.325 160.264 748.6 160.264 740.654 160.264ZM591.186 163.271C589.911 169.6 589.911 177.203 589.911 192.423C589.911 207.643 589.911 215.246 591.186 221.575C596.326 246.932 616.142 266.749 641.486 271.875C647.814 273.149 655.417 273.149 670.638 273.149H740.654C755.874 273.149 763.477 273.149 769.806 271.875C795.163 266.734 814.98 246.918 820.106 221.575C821.38 215.246 821.38 207.643 821.38 192.423C821.38 177.203 821.38 169.6 820.106 163.271C814.965 137.913 795.149 118.097 769.806 112.971C763.477 111.697 755.874 111.697 740.654 111.697H670.638C655.417 111.697 647.814 111.697 641.486 112.971C616.128 118.111 596.312 137.928 591.186 163.271Z" fill="white"/>
<path fill-rule="evenodd" clip-rule="evenodd" d="M42.4249 52.4763C50.7582 49.0256 59.7071 47.2502 68.7275 47.2502H118.841V95.9322H68.7275C66.093 95.9322 63.4871 96.4476 61.053 97.4499C58.6189 98.4522 56.4139 99.9413 54.5525 101.803C52.6911 103.664 51.2163 105.869 50.1997 108.303C49.1975 110.737 48.6677 113.343 48.6677 115.978C48.6677 118.612 49.1832 121.218 50.1997 123.652C51.202 126.086 52.6768 128.291 54.5525 130.153C56.4139 132.014 58.6189 133.489 61.053 134.506C63.4871 135.508 66.093 136.038 68.7275 136.038H176.114C185.135 136.038 194.069 137.813 202.417 141.264C210.75 144.714 218.324 149.783 224.71 156.169C231.096 162.555 236.151 170.129 239.601 178.463C243.052 186.796 244.828 195.745 244.828 204.765C244.828 213.786 243.052 222.72 239.601 231.068C236.151 239.401 231.082 246.975 224.71 253.361C218.339 259.747 210.75 264.802 202.417 268.252C194.084 271.703 185.135 273.478 176.114 273.478H68.7275C59.7071 273.478 50.7582 271.703 42.4249 268.252C34.0917 264.802 26.5031 259.733 20.1314 253.361C13.7455 246.975 8.69117 239.401 5.22616 231.068C1.77546 222.735 0 213.786 0 204.765H48.682C48.682 207.4 49.1975 210.006 50.2141 212.44C51.2163 214.874 52.6911 217.079 54.5668 218.94C56.4282 220.802 58.6332 222.276 61.0673 223.293C63.5014 224.295 66.1073 224.825 68.7419 224.825H176.129C178.763 224.825 181.369 224.31 183.803 223.307C186.237 222.305 188.442 220.816 190.304 218.954C192.165 217.093 193.64 214.888 194.656 212.454C195.659 210.02 196.189 207.414 196.189 204.779C196.189 202.145 195.673 199.539 194.656 197.105C193.654 194.671 192.165 192.466 190.304 190.604C188.442 188.743 186.237 187.268 183.803 186.252C181.369 185.249 178.763 184.72 176.129 184.72H68.7419C59.7214 184.72 50.7725 182.944 42.4393 179.493C34.106 176.043 26.5174 170.974 20.1458 164.602C13.7598 158.217 8.70549 150.642 5.24048 142.309C1.78978 133.976 0.0143182 125.027 0.0143182 116.006C0.0143182 106.986 1.78978 98.037 5.24048 89.7038C8.69117 81.3705 13.7598 73.7819 20.1458 67.4103C26.5317 61.0243 34.106 55.97 42.4393 52.505L42.4249 52.4763Z" fill="white"/>
<path d="M180.41 0H229.092V46.835H276.342V95.0874H229.092V140.791C222.72 135.508 215.575 131.198 207.901 128.019C199.152 124.397 189.86 122.292 180.41 121.805V95.0874H133.16V46.835H180.41V0Z" fill="white"/>
<path d="M339.342 47.2502H290.66V273.478H339.342V47.2502Z" fill="white"/>
<path d="M385.161 47.2502H581.32V95.9322H433.843V136.023H561.275V184.705H433.843V273.478H385.161V47.2502Z" fill="white"/>
</g>
<defs>
<clipPath id="clip0_305_986">
<rect width="2000" height="275.01" fill="white"/>
</clipPath>
</defs>
</svg>
